<?xml version="1.0" standalone="no"?><!DOCTYPE svg PUBLIC "-//W3C//DTD SVG 1.1//EN" "http://www.w3.org/Graphics/SVG/1.1/DTD/svg11.dtd"><svg t="1583510300694" class="icon" viewBox="0 0 1024 1024" version="1.1" xmlns="http://www.w3.org/2000/svg" p-id="2457" xmlns:xlink="http://www.w3.org/1999/xlink" width="200" height="200"><defs><style type="text/css"></style></defs><path d="M518.9 98C280.4 98 87.1 291.3 87.1 529.8s193.3 431.8 431.8 431.8 431.8-193.3 431.8-431.8S757.4 98 518.9 98z m20.3 803.7c-6.8 2.9-13.9 4.4-21 4.4s-14.2-1.5-20.8-4.4l-83-44.9H625l-85.8 44.9z m95-90.9H406.4v0.1C393.3 810.6 383 800 383 787s10.3-23.6 23.3-23.9v-0.1h227.9c13 0.4 23.2 10.9 23.2 23.9s-10.2 23.5-23.2 23.9z m157.4-343.2l-0.1 0.2c-1.3 2.1-1.7 4.6-1.4 7v0.1l-4.4 26.9h-0.4c-0.3 0-0.5 0.1-0.5 0.2-0.5 0.5-0.4 1.8-0.4 2.9v0.9c-2.8 9.8-5.7 18.7-8.5 26.3v1.6l-1.5 1.5c-3.2 9.4-7.1 18.7-11.3 27.6 0.1 0.5-0.1 1-0.5 1.4-0.3 0.3-0.7 0.5-1.2 0.5-4.5 9.5-9.8 18.8-15.6 27.6-6.4 9.8-12.4 18.5-18.5 26.4l-1.5 1.5c-6.1 7.2-12.9 14.1-20 20.5l-0.1 0.1c-0.7 0.4-1.4 0.9-2.1 1.4-2 1.4-2.9 2.7-4.1 4.3-0.9 1.2-2 2.7-3.7 4.4l-0.2 0.2h-0.2c-1.7-0.2-3.3 0.9-3.7 2.6v0.2L678 665l-2.9 2.2-2.2 1.5c-7.8 6.1-14.2 14.2-18.4 23.2-2.7 7-6.6 13.4-11.5 19.2-3.8 4-10.9 6-21.5 6H416.4c-10.7 0-17.8-2-21.7-6-5-5.8-9.1-12.2-12.2-19.2-4.4-8.8-10.3-16.5-17.5-23.1-1.2-0.1-2.3-0.7-3.1-1.7l-2.1-2.2-13.6-10.9-4.2-2.9-31.4-32.3c-13-16.9-24.5-35.1-34.1-54-0.4 0-0.9-0.2-1.2-0.5-0.4-0.4-0.5-0.9-0.5-1.4-4.2-8.9-8-18.1-11.2-27.4-0.4 0-0.8-0.2-1.1-0.5-0.4-0.4-0.6-1-0.5-1.5V532c-2.8-7.7-5.7-16.5-8.5-26.3-0.3-0.7-0.5-1.4-0.7-2.2l-0.7-2.1c-2-8.7-3.4-17.6-4.3-26.5 0-0.9-0.4-2.3-0.7-3.6-0.4-1.4-0.7-2.8-0.7-3.8-0.9-9.6-1.4-20.1-1.4-32.2 0-38.5 6.7-74.7 20-107.7 13.2-32.9 33.4-63.6 59.9-91.2 52.8-55 117.8-82.9 193.4-82.9 37.7 0 73.1 7 105.2 20.7 32.2 13.7 62.1 34.7 88.9 62.2 26.8 27.5 47.2 58.2 60.5 91.2 13.3 32.9 20.1 69.2 20.1 107.7 0 12-0.5 22.6-1.4 32.3z" p-id="2458" fill="#d81e06"></path><path d="M668.6 434.6c7 4.1 15.7 4.1 22.6 0 7-4.1 11.2-11.7 11-19.8 0-51.1-15.8-90.8-48.3-121.3-32.1-30-69.3-45.3-110.8-45.3-6.1-0.1-11.9 2.3-16.1 6.6-4.2 4.3-6.5 10.3-6.2 16.3-0.3 6.1 2 12 6.2 16.3 4.2 4.4 10.1 6.8 16.1 6.7 27.7 0 53.9 11.6 78 34.6 23.9 22.1 37.2 53.5 36.5 86.1-0.2 8.1 4 15.7 11 19.8z" p-id="2459" fill="#d81e06"></path></svg>